<svg width="17" height="18" viewBox="0 0 17 18" fill="none" xmlns="http://www.w3.org/2000/svg">
<path d="M2.15385 3.23096C1.84782 3.23096 1.55434 3.35253 1.33795 3.56891C1.12157 3.7853 1 4.07878 1 4.3848V15.3463C1 15.6523 1.12157 15.9459 1.33795 16.1622C1.55434 16.3786 1.84782 16.5002 2.15385 16.5002H14.8462C15.1522 16.5002 15.4457 16.3786 15.662 16.1622C15.8784 15.9459 16 15.6523 16 15.3463V4.3848C16 4.07878 15.8784 3.7853 15.662 3.56891C15.4457 3.35253 15.1522 3.23096 14.8462 3.23096H12.5385" stroke="#262832" stroke-width="1.5" stroke-linecap="round" stroke-linejoin="round"/>
<path d="M1 7.26904H16" stroke="#262832" stroke-width="1.5" stroke-linecap="round" stroke-linejoin="round"/>
<path d="M4.46143 1.5V4.96154" stroke="#262832" stroke-width="1.5" stroke-linecap="round" stroke-linejoin="round"/>
<path d="M12.5386 1.5V4.96154" stroke="#262832" stroke-width="1.5" stroke-linecap="round" stroke-linejoin="round"/>
<path d="M4.46143 3.23096H10.2307" stroke="#262832" stroke-width="1.5" stroke-linecap="round" stroke-linejoin="round"/>
</svg>
