<svg width="16" height="16" viewBox="0 0 16 16" fill="none" xmlns="http://www.w3.org/2000/svg">
<path fill-rule="evenodd" clip-rule="evenodd" d="M10.887 0.5C11.2568 0.5 11.5566 0.799809 11.5566 1.16964V2.04885C11.5566 2.41868 11.2568 2.71849 10.887 2.71849C10.5171 2.71849 10.2173 2.41868 10.2173 2.04885V1.16964C10.2173 0.799809 10.5171 0.5 10.887 0.5ZM4.6309 9.86229C6.06795 9.86229 7.23293 8.69733 7.23293 7.26026C7.23293 5.8232 6.06795 4.65823 4.6309 4.65823C3.19384 4.65823 2.02886 5.8232 2.02886 7.26026C2.02886 8.69733 3.19384 9.86229 4.6309 9.86229ZM0.294067 15.0663C0.294067 12.6712 2.23569 10.7296 4.63079 10.7296C7.0259 10.7296 8.96751 12.6712 8.96751 15.0663C8.96751 15.3059 8.77335 15.5 8.53384 15.5H0.72774C0.488229 15.5 0.294067 15.3059 0.294067 15.0663ZM14.9903 3.17079C15.293 2.95831 15.3662 2.54066 15.1537 2.23796C14.9411 1.93527 14.5235 1.86215 14.2208 2.07464L13.5012 2.57978C13.1986 2.79228 13.1254 3.20992 13.3379 3.51261C13.5504 3.81531 13.9681 3.88844 14.2707 3.67595L14.9903 3.17079ZM6.61821 2.23796C6.40572 2.54066 6.47885 2.95831 6.78153 3.17079L7.50114 3.67595C7.80383 3.88844 8.22147 3.81531 8.43396 3.51261C8.64645 3.20992 8.57333 2.79228 8.27063 2.57978L7.55103 2.07464C7.24833 1.86215 6.83069 1.93527 6.61821 2.23796ZM10.8375 3.54304C12.1587 3.5156 13.2772 4.61523 13.2723 5.93677C13.2615 6.81408 12.7356 7.65168 11.9501 8.04266V9.23532C11.9484 9.30464 11.9196 9.3705 11.8699 9.41888C11.8203 9.46726 11.7536 9.49432 11.6843 9.4943H10.0896C10.0203 9.49432 9.95368 9.46726 9.90403 9.41888C9.85437 9.3705 9.82559 9.30464 9.82381 9.23532V8.06311C9.06234 7.68396 8.54263 6.88559 8.50412 6.03581C8.44431 4.71561 9.5162 3.57048 10.8375 3.54304Z" fill="white"/>
</svg>
