<svg width="16" height="16" viewBox="0 0 16 16" fill="none" xmlns="http://www.w3.org/2000/svg">
<path fill-rule="evenodd" clip-rule="evenodd" d="M11.4287 0.5C11.7986 0.5 12.0984 0.799809 12.0984 1.16964V2.04885C12.0984 2.41868 11.7986 2.71849 11.4287 2.71849C11.0589 2.71849 10.7591 2.41868 10.7591 2.04885V1.16964C10.7591 0.799809 11.0589 0.5 11.4287 0.5ZM5.17265 9.86229C6.6097 9.86229 7.77468 8.69733 7.77468 7.26026C7.77468 5.8232 6.6097 4.65823 5.17265 4.65823C3.73558 4.65823 2.57061 5.8232 2.57061 7.26026C2.57061 8.69733 3.73558 9.86229 5.17265 9.86229ZM0.835815 15.0663C0.835815 12.6712 2.77744 10.7296 5.17254 10.7296C7.56764 10.7296 9.50925 12.6712 9.50925 15.0663C9.50925 15.3059 9.3151 15.5 9.07558 15.5H1.26949C1.02998 15.5 0.835815 15.3059 0.835815 15.0663ZM15.5321 3.17079C15.8347 2.95831 15.9079 2.54066 15.6955 2.23796C15.4829 1.93527 15.0652 1.86215 14.7626 2.07464L14.043 2.57978C13.7403 2.79228 13.6671 3.20992 13.8796 3.51261C14.0922 3.81531 14.5098 3.88844 14.8125 3.67595L15.5321 3.17079ZM7.15995 2.23796C6.94747 2.54066 7.02059 2.95831 7.32328 3.17079L8.04289 3.67595C8.34558 3.88844 8.76322 3.81531 8.9757 3.51261C9.1882 3.20992 9.11508 2.79228 8.81238 2.57978L8.09278 2.07464C7.79008 1.86215 7.37244 1.93527 7.15995 2.23796ZM11.3792 3.54304C12.7005 3.5156 13.819 4.61523 13.814 5.93677C13.8032 6.81408 13.2774 7.65168 12.4919 8.04266V9.23532C12.4902 9.30464 12.4614 9.3705 12.4116 9.41888C12.362 9.46726 12.2954 9.49432 12.2261 9.4943H10.6314C10.562 9.49432 10.4954 9.46726 10.4458 9.41888C10.3961 9.3705 10.3673 9.30464 10.3656 9.23532V8.06311C9.60409 7.68396 9.08438 6.88559 9.04587 6.03581C8.98605 4.71561 10.0579 3.57048 11.3792 3.54304Z" fill="#262832"/>
</svg>
