<svg width="17" height="18" viewBox="0 0 17 18" fill="none" xmlns="http://www.w3.org/2000/svg">
<path d="M13.6922 6.69231C13.6922 10.1538 8.49993 14.1923 8.49993 14.1923C8.49993 14.1923 3.30762 10.1538 3.30762 6.69231C3.30762 3.86423 5.67185 1.5 8.49993 1.5C11.328 1.5 13.6922 3.86423 13.6922 6.69231Z" stroke="#262832" stroke-width="1.5" stroke-linecap="round" stroke-linejoin="round"/>
<path d="M8.49981 8.42345C9.45569 8.42345 10.2306 7.64856 10.2306 6.69268C10.2306 5.7368 9.45569 4.96191 8.49981 4.96191C7.54393 4.96191 6.76904 5.7368 6.76904 6.69268C6.76904 7.64856 7.54393 8.42345 8.49981 8.42345Z" stroke="#262832" stroke-width="1.5" stroke-linecap="round" stroke-linejoin="round"/>
<path d="M13.2046 12.4619H14.2692L16 16.5004H1L2.73077 12.4619H3.79542" stroke="#262832" stroke-width="1.5" stroke-linecap="round" stroke-linejoin="round"/>
</svg>
