<svg width="155" height="155" viewBox="0 0 155 155" fill="none" xmlns="http://www.w3.org/2000/svg">
<rect x="0.0356445" y="0.509277" width="154.018" height="154.018" rx="15.625" fill="#95E500"/>
<path fill-rule="evenodd" clip-rule="evenodd" d="M35.7651 53.1482C32.5362 53.6864 30.1696 56.4801 30.1696 59.7535V108.676C30.1696 112.814 33.8852 115.962 37.9669 115.281L70.3387 109.886C67.4672 108.28 64.7732 106.003 62.5645 102.817C58.4163 97.0639 56.5206 89.2976 55.7105 82.0341C54.8963 74.7333 55.1527 67.6814 55.4997 63.1378C55.5454 62.1666 55.8191 61.2194 56.2994 60.3723C56.786 59.5138 57.4707 58.7827 58.2968 58.239C59.1229 57.6953 60.067 57.3546 61.0511 57.2447C62.006 57.138 62.9724 57.2516 63.8755 57.5761C68.2756 58.8403 75.0532 61.0491 81.719 64.3038C88.3739 67.5533 95.1558 71.9581 99.2431 77.7064C103.668 83.9104 105.361 92.1698 104.388 97.8308C103.941 100.435 103.285 102.753 102.288 104.561L118.324 101.888C121.553 101.35 123.92 98.5566 123.92 95.2831V46.3607C123.92 42.2227 120.204 39.0751 116.122 39.7554L35.7651 53.1482ZM97.8787 105.296C92.7237 93.8363 84.3942 81.8283 72.8704 71.26C71.8458 70.3203 70.2498 70.3853 69.3057 71.4051C68.3616 72.425 68.4269 74.0135 69.4515 74.9532C80.0828 84.703 87.8212 95.6898 92.7256 106.155L97.8787 105.296Z" fill="white"/>
</svg>
