<svg width="16" height="16" viewBox="0 0 16 16" fill="none" xmlns="http://www.w3.org/2000/svg">
<path fill-rule="evenodd" clip-rule="evenodd" d="M4.25516 0.58313C4.66788 0.58313 5.01349 0.895773 5.05472 1.30642L5.35955 4.34234H13.4482C13.6999 4.33326 13.95 4.3863 14.1764 4.49686C14.406 4.60898 14.6039 4.77668 14.7521 4.98472C14.8937 5.18084 14.987 5.40768 15.0242 5.64674C15.0615 5.88664 15.0413 6.13198 14.9653 6.36256L14.9648 6.36381L13.6381 10.3539L13.6375 10.3556C13.5308 10.673 13.3233 10.9467 13.0464 11.1349C12.7737 11.3203 12.4488 11.4128 12.1198 11.3989H5.85047C5.4819 11.4023 5.12439 11.2727 4.84349 11.034C4.56173 10.7945 4.37602 10.4613 4.32057 10.0957C4.31924 10.0868 4.31811 10.0779 4.31721 10.069L3.80051 4.93165C3.79862 4.9128 3.79773 4.89395 3.79782 4.87518L3.52824 2.19028H1.76134C1.31754 2.19028 0.957764 1.8305 0.957764 1.3867C0.957764 0.942901 1.31754 0.58313 1.76134 0.58313H4.25516ZM11.9154 12.976C12.6124 12.976 13.1775 13.5409 13.1775 14.2379C13.1775 14.9349 12.6124 15.4999 11.9154 15.4999C11.2185 15.4999 10.6534 14.9349 10.6534 14.2379C10.6534 13.5409 11.2185 12.976 11.9154 12.976ZM7.66386 14.2379C7.66386 13.5409 7.09885 12.976 6.40187 12.976C5.70489 12.976 5.13989 13.5409 5.13989 14.2379C5.13989 14.9349 5.70489 15.4999 6.40187 15.4999C7.09885 15.4999 7.66386 14.9349 7.66386 14.2379ZM10.8109 7.3303C11.1808 7.3303 11.4805 7.63011 11.4805 7.99995C11.4805 8.36978 11.1808 8.66959 10.8109 8.66959H7.99994C7.63011 8.66959 7.33029 8.36978 7.33029 7.99995C7.33029 7.63011 7.63011 7.3303 7.99994 7.3303H10.8109Z" fill="white"/>
</svg>
