<svg width="15" height="16" viewBox="0 0 15 16" fill="none" xmlns="http://www.w3.org/2000/svg">
<path fill-rule="evenodd" clip-rule="evenodd" d="M3.79691 0.583191C4.20963 0.583191 4.55524 0.895834 4.59647 1.30648L4.9013 4.3424H12.99C13.2416 4.33332 13.4917 4.38636 13.7181 4.49692C13.9477 4.60904 14.1456 4.77674 14.2939 4.98478C14.4354 5.1809 14.5287 5.40774 14.5659 5.6468C14.6032 5.8867 14.5831 6.13204 14.507 6.36262L14.5066 6.36387L13.1798 10.354L13.1793 10.3557C13.0726 10.673 12.865 10.9467 12.5882 11.135C12.3155 11.3204 11.9905 11.4128 11.6615 11.399H5.39222C5.02364 11.4023 4.66614 11.2728 4.38523 11.0341C4.10348 10.7946 3.91777 10.4613 3.86232 10.0957C3.86098 10.0869 3.85986 10.0779 3.85896 10.069L3.34226 4.93172C3.34037 4.91286 3.33948 4.89401 3.33957 4.87524L3.06999 2.19034H1.30309C0.859284 2.19034 0.499512 1.83056 0.499512 1.38676C0.499512 0.942962 0.859284 0.583191 1.30309 0.583191H3.79691ZM11.4572 12.976C12.1541 12.976 12.7192 13.541 12.7192 14.238C12.7192 14.9349 12.1541 15.5 11.4572 15.5C10.7602 15.5 10.1952 14.9349 10.1952 14.238C10.1952 13.541 10.7602 12.976 11.4572 12.976ZM7.20561 14.238C7.20561 13.541 6.6406 12.976 5.94362 12.976C5.24664 12.976 4.68163 13.541 4.68163 14.238C4.68163 14.9349 5.24664 15.5 5.94362 15.5C6.6406 15.5 7.20561 14.9349 7.20561 14.238ZM10.3527 7.33037C10.7225 7.33037 11.0223 7.63017 11.0223 8.00001C11.0223 8.36984 10.7225 8.66965 10.3527 8.66965H7.54168C7.17186 8.66965 6.87204 8.36984 6.87204 8.00001C6.87204 7.63017 7.17186 7.33037 7.54168 7.33037H10.3527Z" fill="#262832"/>
</svg>
