<svg width="15" height="14" viewBox="0 0 15 14" fill="none" xmlns="http://www.w3.org/2000/svg">
<path fill-rule="evenodd" clip-rule="evenodd" d="M10.3936 8.2963C12.6845 8.2963 14.5417 6.43911 14.5417 4.14815C14.5417 1.85719 12.6845 0 10.3936 0C8.10264 0 6.24545 1.85719 6.24545 4.14815C6.24545 6.43911 8.10264 8.2963 10.3936 8.2963ZM10.3936 2.46296C10.7516 2.46296 11.0417 2.75315 11.0417 3.11111V5.18518C11.0417 5.54315 10.7516 5.83333 10.3936 5.83333C10.0356 5.83333 9.74545 5.54315 9.74545 5.18518V3.11111C9.74545 2.75315 10.0356 2.46296 10.3936 2.46296ZM2.45316 6.74074H0.541748V10.8889L2.4379 12.785C3.21582 13.563 4.27092 14 5.37107 14H11.4306C12.2897 14 12.9862 13.3035 12.9862 12.4444C12.9862 11.5854 12.2897 10.8889 11.4306 10.8889H8.55093C8.45084 11.2275 8.26719 11.5466 7.99999 11.8137C7.14551 12.6682 5.76011 12.6682 4.90562 11.8137L3.40191 10.31C3.14879 10.0569 3.14879 9.64653 3.40191 9.39342C3.65503 9.1403 4.06541 9.1403 4.31852 9.39342L5.82225 10.8971C6.17049 11.2454 6.73512 11.2454 7.08338 10.8971C7.39655 10.584 7.4281 10.0958 7.178 9.74736L5.38634 7.9557C4.60842 7.17778 3.55331 6.74074 2.45316 6.74074Z" fill="#262832"/>
</svg>
