<svg width="15" height="14" viewBox="0 0 15 14" fill="none" xmlns="http://www.w3.org/2000/svg">
<path fill-rule="evenodd" clip-rule="evenodd" d="M10.1851 8.2963C12.476 8.2963 14.3333 6.43911 14.3333 4.14815C14.3333 1.85719 12.476 0 10.1851 0C7.89414 0 6.03696 1.85719 6.03696 4.14815C6.03696 6.43911 7.89414 8.2963 10.1851 8.2963ZM10.1851 2.46296C10.5431 2.46296 10.8333 2.75315 10.8333 3.11111V5.18518C10.8333 5.54315 10.5431 5.83333 10.1851 5.83333C9.82714 5.83333 9.53696 5.54315 9.53696 5.18518V3.11111C9.53696 2.75315 9.82714 2.46296 10.1851 2.46296ZM2.24467 6.74074H0.333252V10.8889L2.2294 12.785C3.00732 13.563 4.06243 14 5.16258 14H11.2221C12.0812 14 12.7777 13.3035 12.7777 12.4444C12.7777 11.5854 12.0812 10.8889 11.2221 10.8889H8.34243C8.24234 11.2275 8.05869 11.5466 7.7915 11.8137C6.93701 12.6682 5.55161 12.6682 4.69712 11.8137L3.19341 10.31C2.94029 10.0569 2.94029 9.64653 3.19341 9.39342C3.44653 9.1403 3.85692 9.1403 4.11003 9.39342L5.61375 10.8971C5.962 11.2454 6.52662 11.2454 6.87488 10.8971C7.18806 10.584 7.2196 10.0958 6.9695 9.74736L5.17784 7.9557C4.39992 7.17778 3.34482 6.74074 2.24467 6.74074Z" fill="white"/>
</svg>
