<svg width="15" height="16" viewBox="0 0 15 16" fill="none" xmlns="http://www.w3.org/2000/svg">
<path fill-rule="evenodd" clip-rule="evenodd" d="M5.98806 1.90285C7.03921 0.140066 9.5634 0.0603732 10.7236 1.75333L11.3599 2.6817L12.2378 2.24794C12.4858 2.12544 12.7836 2.16797 12.9873 2.35501C13.191 2.54205 13.2588 2.83511 13.1579 3.09261L11.9251 6.2388C11.8003 6.55749 11.4552 6.73071 11.125 6.64041L7.81965 5.7364C7.55139 5.66302 7.3564 5.43148 7.32975 5.15464C7.3031 4.87781 7.45034 4.61331 7.69968 4.49011L8.43474 4.12695L7.8334 3.18305C7.68994 2.95788 7.37085 2.93266 7.19381 3.13248L5.99101 4.49C5.76184 4.74866 5.3735 4.79044 5.09455 4.58648C4.8156 4.38251 4.73766 3.99977 4.91465 3.70296L5.98806 1.90285ZM4.00543 5.50101C4.34386 5.44982 4.66642 5.66208 4.75331 5.99315L5.62308 9.30767C5.69367 9.57669 5.59064 9.86132 5.36421 10.0228C5.13779 10.1843 4.83511 10.189 4.60375 10.0347L3.9217 9.57971L3.40493 10.5724C3.28165 10.8092 3.41935 11.0982 3.68093 11.1516L5.45797 11.5145C5.79656 11.5836 6.02691 11.8991 5.98975 12.2427C5.95258 12.5862 5.66009 12.845 5.31455 12.8402L3.21889 12.8106C1.16671 12.7817 -0.164397 10.6355 0.721617 8.78425L1.20748 7.76906L0.392908 7.22565C0.162829 7.07217 0.0507813 6.79302 0.110889 6.52305C0.170998 6.25308 0.390893 6.04785 0.664359 6.00648L4.00543 5.50101ZM7.63451 12.5216C7.42095 12.2541 7.44349 11.8686 7.68678 11.6279L10.1223 9.21735C10.32 9.02171 10.618 8.96862 10.8712 9.08396C11.1242 9.1993 11.2796 9.45906 11.2616 9.7366L11.2087 10.5548L12.3268 10.506C12.5935 10.4943 12.7749 10.2306 12.6903 9.97735L12.1161 8.25694C12.0067 7.92915 12.1647 7.57194 12.4808 7.43234C12.7968 7.29275 13.1673 7.41663 13.3359 7.7183L14.3581 9.54797C15.3592 11.3397 14.166 13.5656 12.1198 13.7238L10.9977 13.8107L10.9344 14.7878C10.9165 15.0638 10.7307 15.3004 10.4669 15.3833C10.203 15.4663 9.91535 15.3784 9.74279 15.1623L7.63451 12.5216Z" fill="white"/>
</svg>
