<svg width="16" height="16" viewBox="0 0 16 16" fill="none" xmlns="http://www.w3.org/2000/svg">
<path fill-rule="evenodd" clip-rule="evenodd" d="M6.86319 1.90282C7.91433 0.140035 10.4385 0.0603426 11.5988 1.7533L12.2351 2.68167L13.1129 2.24791C13.3609 2.12541 13.6587 2.16794 13.8625 2.35498C14.0661 2.54202 14.134 2.83508 14.033 3.09258L12.8003 6.23877C12.6754 6.55746 12.3303 6.73068 12.0001 6.64038L8.69477 5.73637C8.42651 5.66299 8.23152 5.43145 8.20487 5.15461C8.17823 4.87778 8.32546 4.61328 8.5748 4.49008L9.30986 4.12692L8.70852 3.18302C8.56506 2.95785 8.24597 2.93263 8.06893 3.13245L6.86613 4.48997C6.63696 4.74863 6.24863 4.79041 5.96967 4.58644C5.69072 4.38248 5.61279 3.99974 5.78978 3.70293L6.86319 1.90282ZM4.88055 5.50098C5.21898 5.44979 5.54155 5.66205 5.62843 5.99312L6.4982 9.30764C6.56879 9.57666 6.46576 9.86129 6.23934 10.0228C6.01291 10.1843 5.71023 10.189 5.47887 10.0347L4.79682 9.57968L4.28005 10.5724C4.15677 10.8092 4.29447 11.0982 4.55605 11.1516L6.3331 11.5145C6.67168 11.5836 6.90204 11.899 6.86487 12.2426C6.8277 12.5861 6.53521 12.845 6.18968 12.8402L4.09402 12.8106C2.04183 12.7817 0.710725 10.6355 1.59674 8.78422L2.0826 7.76903L1.26803 7.22562C1.03795 7.07214 0.925903 6.79299 0.986011 6.52302C1.04612 6.25305 1.26602 6.04782 1.53948 6.00645L4.88055 5.50098ZM8.50963 12.5215C8.29607 12.2541 8.31861 11.8686 8.5619 11.6279L10.9975 9.21732C11.1951 9.02168 11.4932 8.96859 11.7463 9.08393C11.9994 9.19927 12.1547 9.45903 12.1367 9.73657L12.0838 10.5548L13.2019 10.5059C13.4686 10.4943 13.65 10.2306 13.5655 9.97732L12.9912 8.25691C12.8818 7.92912 13.0398 7.57191 13.3559 7.43231C13.672 7.29272 14.0425 7.4166 14.211 7.71827L15.2333 9.54794C16.2343 11.3396 15.0411 13.5655 12.9949 13.7238L11.8728 13.8107L11.8095 14.7878C11.7916 15.0638 11.6058 15.3004 11.342 15.3833C11.0782 15.4662 10.7905 15.3784 10.6179 15.1623L8.50963 12.5215Z" fill="#262832"/>
</svg>
